<svg width="25" height="25" viewBox="0 0 25 25" fill="none" xmlns="http://www.w3.org/2000/svg">
<path d="M9.32422 4.83008H9.13672C9.23984 4.83008 9.32422 4.7457 9.32422 4.64258V4.83008ZM9.32422 4.83008H16.4492V4.64258C16.4492 4.7457 16.5336 4.83008 16.6367 4.83008H16.4492V6.51758H18.1367V4.64258C18.1367 3.81523 17.4641 3.14258 16.6367 3.14258H9.13672C8.30937 3.14258 7.63672 3.81523 7.63672 4.64258V6.51758H9.32422V4.83008ZM21.1367 6.51758H4.63672C4.22187 6.51758 3.88672 6.85273 3.88672 7.26758V8.01758C3.88672 8.1207 3.97109 8.20508 4.07422 8.20508H5.48984L6.06875 20.4629C6.10625 21.2621 6.76719 21.8926 7.56641 21.8926H18.207C19.0086 21.8926 19.6672 21.2645 19.7047 20.4629L20.2836 8.20508H21.6992C21.8023 8.20508 21.8867 8.1207 21.8867 8.01758V7.26758C21.8867 6.85273 21.5516 6.51758 21.1367 6.51758ZM18.0266 20.2051H7.74688L7.17969 8.20508H18.5938L18.0266 20.2051Z" fill="#FF0000"/>
</svg>
