<svg width="25" height="24" viewBox="0 0 25 24" fill="none" xmlns="http://www.w3.org/2000/svg">
<path d="M9.47324 6.435L9.47474 5.247C9.47554 4.45187 9.79196 3.68958 10.3545 3.12762C10.917 2.56566 11.6796 2.25 12.4747 2.25C14.1277 2.25 15.4672 3.5895 15.4672 5.2425V6.432C17.883 7.15193 19.9592 8.71654 21.3171 10.8403C22.675 12.964 23.224 15.5052 22.8637 18H2.07824C1.71865 15.506 2.26753 12.9659 3.62477 10.8429C4.98201 8.71985 7.05716 7.15545 9.47174 6.435H9.47324ZM2.72174 19.5H22.2217C22.4207 19.5 22.6114 19.579 22.7521 19.7197C22.8927 19.8603 22.9717 20.0511 22.9717 20.25C22.9717 20.4489 22.8927 20.6397 22.7521 20.7803C22.6114 20.921 22.4207 21 22.2217 21H2.72174C2.52283 21 2.33207 20.921 2.19141 20.7803C2.05076 20.6397 1.97174 20.4489 1.97174 20.25C1.97174 20.0511 2.05076 19.8603 2.19141 19.7197C2.33207 19.579 2.52283 19.5 2.72174 19.5ZM3.47174 16.5H21.4717C21.4717 15.3181 21.239 14.1478 20.7867 13.0558C20.3344 11.9639 19.6714 10.9718 18.8357 10.136C18 9.30031 17.0078 8.63738 15.9159 8.18508C14.824 7.73279 13.6536 7.5 12.4717 7.5C11.2898 7.5 10.1195 7.73279 9.02759 8.18508C7.93566 8.63738 6.94351 9.30031 6.10778 10.136C5.27205 10.9718 4.60912 11.9639 4.15683 13.0558C3.70453 14.1478 3.47174 15.3181 3.47174 16.5ZM13.9672 6V5.2425C13.9672 4.84666 13.81 4.46704 13.5301 4.18714C13.2502 3.90725 12.8706 3.75 12.4747 3.75C12.0772 3.75 11.6959 3.90783 11.4146 4.18881C11.1334 4.46979 10.9751 4.85094 10.9747 5.2485V6H13.9672Z" fill="#757575"/>
</svg>
