<svg width="45" height="45" viewBox="0 0 45 45" fill="none" xmlns="http://www.w3.org/2000/svg">
<circle cx="22.4678" cy="22.4375" r="21" fill="#21BE63" fill-opacity="0.2"/>
<circle cx="22.4678" cy="22.4375" r="21.5" stroke="#21BE63" stroke-opacity="0.2"/>
<path d="M28.4478 21.2275V25.2275C28.4478 25.4875 28.4378 25.7375 28.4078 25.9775C28.1778 28.6775 26.5878 30.0175 23.6578 30.0175H23.2578C23.0078 30.0175 22.7678 30.1375 22.6178 30.3375L21.4178 31.9375C20.8878 32.6475 20.0278 32.6475 19.4978 31.9375L18.2978 30.3375C18.1678 30.1675 17.8778 30.0175 17.6578 30.0175H17.2578C14.0678 30.0175 12.4678 29.2275 12.4678 25.2275V21.2275C12.4678 18.2975 13.8178 16.7075 16.5078 16.4775C16.7478 16.4475 16.9978 16.4375 17.2578 16.4375H23.6578C26.8478 16.4375 28.4478 18.0375 28.4478 21.2275Z" stroke="#20B25D" stroke-width="1.5" stroke-miterlimit="10" stroke-linecap="round" stroke-linejoin="round"/>
<path d="M32.4478 17.2275V21.2275C32.4478 24.1675 31.0978 25.7475 28.4078 25.9775C28.4378 25.7375 28.4478 25.4875 28.4478 25.2275V21.2275C28.4478 18.0375 26.8478 16.4375 23.6578 16.4375H17.2578C16.9978 16.4375 16.7478 16.4475 16.5078 16.4775C16.7378 13.7875 18.3278 12.4375 21.2578 12.4375H27.6578C30.8478 12.4375 32.4478 14.0375 32.4478 17.2275Z" stroke="#20B25D" stroke-width="1.5" stroke-miterlimit="10" stroke-linecap="round" stroke-linejoin="round"/>
<path d="M23.9633 23.6875H23.9723" stroke="#20B25D" stroke-width="2" stroke-linecap="round" stroke-linejoin="round"/>
<path d="M20.4633 23.6875H20.4723" stroke="#20B25D" stroke-width="2" stroke-linecap="round" stroke-linejoin="round"/>
<path d="M16.9633 23.6875H16.9723" stroke="#20B25D" stroke-width="2" stroke-linecap="round" stroke-linejoin="round"/>
</svg>
