<svg width="25" height="25" viewBox="0 0 25 25" fill="none" xmlns="http://www.w3.org/2000/svg">
<path d="M18.9097 10.9931V14.9931C18.9097 15.2531 18.8997 15.5031 18.8697 15.7431C18.6397 18.4431 17.0497 19.7831 14.1197 19.7831H13.7197C13.4697 19.7831 13.2297 19.9031 13.0797 20.1031L11.8797 21.7031C11.3497 22.4131 10.4897 22.4131 9.95969 21.7031L8.75967 20.1031C8.62967 19.9331 8.33969 19.7831 8.11969 19.7831H7.7197C4.5297 19.7831 2.92969 18.9931 2.92969 14.9931V10.9931C2.92969 8.06313 4.2797 6.47313 6.9697 6.24313C7.2097 6.21313 7.4597 6.20312 7.7197 6.20312H14.1197C17.3097 6.20312 18.9097 7.80313 18.9097 10.9931Z" stroke="#20B25D" stroke-width="1.5" stroke-miterlimit="10" stroke-linecap="round" stroke-linejoin="round"/>
<path d="M22.9088 6.99313V10.9931C22.9088 13.9331 21.5587 15.5131 18.8687 15.7431C18.8987 15.5031 18.9088 15.2531 18.9088 14.9931V10.9931C18.9088 7.80313 17.3087 6.20312 14.1187 6.20312H7.71875C7.45875 6.20312 7.20875 6.21313 6.96875 6.24313C7.19875 3.55313 8.78875 2.20312 11.7188 2.20312H18.1187C21.3087 2.20312 22.9088 3.80313 22.9088 6.99313Z" stroke="#20B25D" stroke-width="1.5" stroke-miterlimit="10" stroke-linecap="round" stroke-linejoin="round"/>
<path d="M14.4252 13.4531H14.4342" stroke="#20B25D" stroke-width="2" stroke-linecap="round" stroke-linejoin="round"/>
<path d="M10.9252 13.4531H10.9342" stroke="#20B25D" stroke-width="2" stroke-linecap="round" stroke-linejoin="round"/>
<path d="M7.42519 13.4531H7.43419" stroke="#20B25D" stroke-width="2" stroke-linecap="round" stroke-linejoin="round"/>
</svg>
