<svg width="25" height="24" viewBox="0 0 25 24" fill="none" xmlns="http://www.w3.org/2000/svg">
<path d="M18.5127 13.55C18.0927 13.96 17.8527 14.55 17.9127 15.18C18.0027 16.26 18.9927 17.05 20.0727 17.05H21.9727V18.24C21.9727 20.31 20.2827 22 18.2127 22H6.73266C4.66266 22 2.97266 20.31 2.97266 18.24V11.51C2.97266 9.44001 4.66266 7.75 6.73266 7.75H18.2127C20.2827 7.75 21.9727 9.44001 21.9727 11.51V12.95H19.9527C19.3927 12.95 18.8827 13.17 18.5127 13.55Z" stroke="#878787" stroke-width="1.5" stroke-linecap="round" stroke-linejoin="round"/>
<path d="M2.97266 12.4093V7.83937C2.97266 6.64937 3.70266 5.58933 4.81266 5.16933L12.7527 2.16933C13.9927 1.69933 15.3227 2.61936 15.3227 3.94936V7.74934" stroke="#878787" stroke-width="1.5" stroke-linecap="round" stroke-linejoin="round"/>
<path d="M23.0315 13.9692V16.0292C23.0315 16.5792 22.5915 17.0292 22.0315 17.0492H20.0715C18.9915 17.0492 18.0015 16.2592 17.9115 15.1792C17.8515 14.5492 18.0915 13.9592 18.5115 13.5492C18.8815 13.1692 19.3915 12.9492 19.9515 12.9492H22.0315C22.5915 12.9692 23.0315 13.4192 23.0315 13.9692Z" stroke="#878787" stroke-width="1.5" stroke-linecap="round" stroke-linejoin="round"/>
<path d="M7.47266 12H14.4727" stroke="#878787" stroke-width="1.5" stroke-linecap="round" stroke-linejoin="round"/>
</svg>
